<?xml version='1.0' encoding='iso-8859-1'?>
<!DOCTYPE svg PUBLIC '-//W3C//DTD SVG 1.1//EN' 'http://www.w3.org/Graphics/SVG/1.1/DTD/svg11.dtd'>
<svg version="1.1" xmlns="http://www.w3.org/2000/svg" viewBox="0 0 439.479 439.479" xmlns:xlink="http://www.w3.org/1999/xlink" enable-background="new 0 0 439.479 439.479">
  <path d="m340.023,130.494c2.974,7.32 10.152,12.5 18.528,12.5 11.028,0 20-8.972 20-20s-8.972-20-20-20c-8.375,0-15.553,5.18-18.528,12.5h-90.517v-19.498h33.548c1.989,0 3.896-0.79 5.304-2.197l12.237-12.237c2.487,1.05 5.14,1.586 7.797,1.586 5.121,0 10.243-1.949 14.142-5.848 3.778-3.778 5.858-8.8 5.858-14.142s-2.08-10.365-5.858-14.142c-7.797-7.797-20.486-7.797-28.283,0-3.778,3.778-5.858,8.8-5.858,14.142 0,2.729 0.55,5.371 1.584,7.809l-10.028,10.029h-30.441v-8.798c-0.002-39.81-32.39-72.198-72.199-72.198s-72.197,32.388-72.197,72.198v159.621c-28.29,22.415-44.735,56.944-44.169,93.137 0.473,30.287 12.632,58.845 34.238,80.413 21.605,21.567 50.184,33.677 80.473,34.099 0.558,0.008 1.115,0.012 1.671,0.012 30.79,0 59.748-11.864 81.701-33.514 22.354-22.045 34.665-51.475 34.665-82.868 0-35.457-16.447-69.292-44.185-91.278v-29.33h15.442l10.028,10.029c-1.034,2.438-1.584,5.081-1.584,7.809 0,5.342 2.08,10.365 5.857,14.142 3.777,3.778 8.8,5.858 14.143,5.858 5.342,0 10.364-2.08 14.143-5.858 7.797-7.798 7.797-20.486 0-28.284 0,0 0,0-0.001,0-3.777-3.777-8.8-5.858-14.142-5.858-2.729,0-5.371,0.55-7.809,1.584l-12.225-12.225c-1.407-1.406-3.314-2.197-5.304-2.197h-18.549v-22.498h52.94l27.706,27.706c-1.034,2.438-1.584,5.081-1.584,7.809 0,5.342 2.08,10.365 5.857,14.142 3.777,3.778 8.8,5.858 14.143,5.858 5.342,0 10.364-2.08 14.143-5.858 7.797-7.798 7.797-20.486 0-28.284 0,0 0,0-0.001,0-3.777-3.777-8.8-5.858-14.142-5.858-2.729,0-5.371,0.55-7.809,1.584l-29.903-29.903c-1.407-1.406-3.314-2.197-5.304-2.197h-56.047v-19.498h90.519zm18.528-12.499c2.757,0 5,2.243 5,5s-2.243,5-5,5-5-2.243-5-5 2.243-5 5-5zm-53.696-58.371c0.976-0.975 2.256-1.462 3.536-1.462s2.561,0.487 3.536,1.462c0.944,0.944 1.464,2.2 1.464,3.535s-0.52,2.591-1.464,3.535c-1.951,1.95-5.123,1.949-7.072,0-0.944-0.944-1.464-2.2-1.464-3.535s0.52-2.591 1.464-3.535zm-7.927,157.17c1.949,1.95 1.949,5.122 0.001,7.071-0.945,0.945-2.201,1.465-3.536,1.465-1.336,0-2.591-0.52-3.536-1.465-0.944-0.944-1.464-2.2-1.464-3.535s0.52-2.591 1.465-3.536c0.944-0.944 2.199-1.464 3.535-1.464 1.335,0 2.59,0.52 3.535,1.464zm55.176-19.82c1.948,1.95 1.948,5.122 0,7.071-0.945,0.945-2.201,1.465-3.536,1.465-1.336,0-2.591-0.52-3.536-1.465-0.944-0.944-1.464-2.2-1.464-3.535s0.52-2.591 1.465-3.536c0.944-0.944 2.199-1.464 3.535-1.464 1.335-0.001 2.591,0.519 3.536,1.464zm-117.598-81.479h-16.561v-19.498h16.561v19.498zm-54.947,15h23.386v19.498h-23.386c-4.142,0-7.5,3.358-7.5,7.5s3.358,7.5 7.5,7.5h23.386v22.498h-23.386c-4.142,0-7.5,3.358-7.5,7.5s3.358,7.5 7.5,7.5h23.386v48.938c0,2.378 1.127,4.615 3.039,6.029l12.788,9.463c18.021,13.335 28.357,33.811 28.357,56.177 0,18.651-7.263,36.185-20.45,49.372-13.185,13.186-30.716,20.448-49.339,20.448-0.024,0-0.699-0.002-1.039-0.007-37.355-0.52-68.22-31.33-68.804-68.682-0.351-22.49 10.247-43.913 28.349-57.309l12.788-9.462c1.911-1.414 3.039-3.651 3.039-6.029v-179.231c0-14.136 11.5-25.636 25.637-25.636 14.136,0 25.636,11.5 25.636,25.636v8.799h-23.386c-4.142,0-7.5,3.358-7.5,7.5s3.358,7.5 7.5,7.5h23.386v19.498h-23.386c-4.142,0-7.5,3.358-7.5,7.5s3.356,7.5 7.499,7.5zm57.986,111.055c25.764,19.065 41.146,49.55 41.146,81.548 0,27.347-10.725,52.983-30.198,72.188-19.469,19.2-45.278,29.565-72.63,29.184-26.366-0.367-51.256-10.92-70.084-29.716-18.829-18.796-29.425-43.667-29.837-70.031-0.51-32.643 14.866-63.736 41.132-83.172 1.911-1.414 3.039-3.651 3.039-6.029v-163.323c-0.002-31.539 25.657-57.198 57.196-57.198s57.197,25.659 57.197,57.198v8.798h-16.561v-8.799c0-22.407-18.229-40.636-40.636-40.636-22.407,0-40.637,18.229-40.637,40.636v175.451l-9.749,7.214c-21.981,16.266-34.85,42.285-34.424,69.601 0.708,45.381 38.208,82.814 83.593,83.446 0.405,0.006 1.22,0.009 1.221,0.009 22.655,0 43.954-8.822 59.972-24.841 16.02-16.02 24.843-37.321 24.843-59.979 0-27.171-12.551-52.042-34.436-68.235l-9.749-7.214v-45.159h16.561v33.03c0.002,2.378 1.13,4.615 3.041,6.029zm-3.039-54.059h-16.561v-22.498h16.561v22.498zm0-37.498h-16.561v-19.498h16.561v19.498z"/>
</svg>
